<?xml version="1.0" standalone="no"?>
<!DOCTYPE svg PUBLIC "-//W3C//DTD SVG 20010904//EN"
 "http://www.w3.org/TR/2001/REC-SVG-20010904/DTD/svg10.dtd">
<svg version="1.0" xmlns="http://www.w3.org/2000/svg"
 width="1024.000000pt" height="1024.000000pt" viewBox="0 0 1024.000000 1024.000000"
 preserveAspectRatio="xMidYMid meet">
<metadata>
Created by potrace 1.14, written by Peter Selinger 2001-2017
</metadata>
<g transform="translate(0.000000,1024.000000) scale(0.100000,-0.100000)"
fill="#000000" stroke="none">
<path d="M1979 10236 c-2 -2 -69 -7 -149 -10 -80 -4 -156 -8 -170 -10 -14 -3
-56 -7 -95 -11 -38 -3 -77 -8 -85 -10 -8 -2 -31 -6 -50 -9 -72 -11 -174 -38
-268 -71 -427 -154 -763 -453 -960 -857 -29 -58 -52 -109 -52 -113 0 -4 -7
-21 -15 -38 -19 -43 -61 -191 -74 -263 -6 -33 -13 -72 -16 -89 -3 -16 -8 -57
-11 -90 -3 -33 -7 -71 -9 -85 -17 -95 -20 -667 -20 -3460 0 -2742 3 -3309 19
-3455 2 -16 7 -61 10 -99 4 -38 9 -72 10 -75 2 -3 7 -28 10 -56 11 -80 45
-213 70 -270 8 -16 22 -52 32 -80 10 -27 40 -93 67 -145 204 -394 548 -684
983 -829 169 -56 326 -81 619 -98 171 -10 6407 -10 6598 0 81 4 153 10 160 12
6 2 42 6 78 9 339 29 682 171 945 393 298 250 517 626 579 998 13 75 15 94 21
150 3 33 7 71 10 85 16 100 19 704 19 3465 0 2769 -3 3357 -19 3455 -3 14 -7
54 -11 90 -3 36 -7 72 -10 80 -2 8 -6 36 -9 61 -22 175 -131 449 -254 635 -89
135 -179 237 -332 374 -60 53 -233 165 -321 207 -250 120 -408 162 -704 188
-44 3 -102 9 -130 12 -54 7 -6459 15 -6466 9z"/>
</g>
</svg>
